<svg width="427" height="547" viewBox="0 0 427 547" fill="none" xmlns="http://www.w3.org/2000/svg">
<path d="M86 0H102V16H86V0Z" fill="#E8E8E8"/>
<path d="M86 64H102V80H86V64Z" fill="#E8E8E8"/>
<path d="M22 0H38V16H22V0Z" fill="#E8E8E8"/>
<path d="M22 64H38V80H22V64Z" fill="#E8E8E8"/>
<path d="M86 32H102V48H86V32Z" fill="#E8E8E8"/>
<path d="M86 96H102V112H86V96Z" fill="#E8E8E8"/>
<path d="M22 32H38V48H22V32Z" fill="#E8E8E8"/>
<path d="M22 96H38V112H22V96Z" fill="#E8E8E8"/>
<path d="M118 0H134V16H118V0Z" fill="#E8E8E8"/>
<path d="M118 64H134V80H118V64Z" fill="#E8E8E8"/>
<path d="M54 0H70V16H54V0Z" fill="#E8E8E8"/>
<path d="M54 64H70V80H54V64Z" fill="#E8E8E8"/>
<path d="M118 32H134V48H118V32Z" fill="#E8E8E8"/>
<path d="M118 96H134V112H118V96Z" fill="#E8E8E8"/>
<path d="M54 32H70V48H54V32Z" fill="#E8E8E8"/>
<path d="M54 96H70V112H54V96Z" fill="#E8E8E8"/>
<path d="M214 0H230V16H214V0Z" fill="#E8E8E8"/>
<path d="M214 64H230V80H214V64Z" fill="#E8E8E8"/>
<path d="M150 0H166V16H150V0Z" fill="#E8E8E8"/>
<path d="M150 64H166V80H150V64Z" fill="#E8E8E8"/>
<path d="M214 32H230V48H214V32Z" fill="#E8E8E8"/>
<path d="M214 96H230V112H214V96Z" fill="#E8E8E8"/>
<path d="M150 32H166V48H150V32Z" fill="#E8E8E8"/>
<path d="M150 96H166V112H150V96Z" fill="#E8E8E8"/>
<path d="M246 0H262V16H246V0Z" fill="#E8E8E8"/>
<path d="M246 64H262V80H246V64Z" fill="#E8E8E8"/>
<path d="M182 0H198V16H182V0Z" fill="#E8E8E8"/>
<path d="M182 64H198V80H182V64Z" fill="#E8E8E8"/>
<path d="M246 32H262V48H246V32Z" fill="#E8E8E8"/>
<path d="M246 96H262V112H246V96Z" fill="#E8E8E8"/>
<path d="M182 32H198V48H182V32Z" fill="#E8E8E8"/>
<path d="M182 96H198V112H182V96Z" fill="#E8E8E8"/>
<path d="M86 128H102V144H86V128Z" fill="#E8E8E8"/>
<path d="M86 192H102V208H86V192Z" fill="#E8E8E8"/>
<path d="M22 128H38V144H22V128Z" fill="#E8E8E8"/>
<path d="M22 192H38V208H22V192Z" fill="#E8E8E8"/>
<path d="M86 160H102V176H86V160Z" fill="#E8E8E8"/>
<path d="M86 224H102V240H86V224Z" fill="#E8E8E8"/>
<path d="M22 160H38V176H22V160Z" fill="#E8E8E8"/>
<path d="M22 224H38V240H22V224Z" fill="#E8E8E8"/>
<path d="M118 128H134V144H118V128Z" fill="#E8E8E8"/>
<path d="M118 192H134V208H118V192Z" fill="#E8E8E8"/>
<path d="M54 128H70V144H54V128Z" fill="#E8E8E8"/>
<path d="M54 192H70V208H54V192Z" fill="#E8E8E8"/>
<path d="M118 160H134V176H118V160Z" fill="#E8E8E8"/>
<path d="M118 224H134V240H118V224Z" fill="#E8E8E8"/>
<path d="M54 160H70V176H54V160Z" fill="#E8E8E8"/>
<path d="M54 224H70V240H54V224Z" fill="#E8E8E8"/>
<path d="M214 128H230V144H214V128Z" fill="#E8E8E8"/>
<path d="M214 192H230V208H214V192Z" fill="#E8E8E8"/>
<path d="M150 128H166V144H150V128Z" fill="#E8E8E8"/>
<path d="M150 192H166V208H150V192Z" fill="#E8E8E8"/>
<path d="M214 160H230V176H214V160Z" fill="#E8E8E8"/>
<path d="M214 224H230V240H214V224Z" fill="#E8E8E8"/>
<path d="M150 160H166V176H150V160Z" fill="#E8E8E8"/>
<path d="M150 224H166V240H150V224Z" fill="#E8E8E8"/>
<path d="M246 128H262V144H246V128Z" fill="#E8E8E8"/>
<path d="M246 192H262V208H246V192Z" fill="#E8E8E8"/>
<path d="M182 128H198V144H182V128Z" fill="#E8E8E8"/>
<path d="M182 192H198V208H182V192Z" fill="#E8E8E8"/>
<path d="M246 160H262V176H246V160Z" fill="#E8E8E8"/>
<path d="M246 224H262V240H246V224Z" fill="#E8E8E8"/>
<path d="M182 160H198V176H182V160Z" fill="#E8E8E8"/>
<path d="M182 224H198V240H182V224Z" fill="#E8E8E8"/>
<path d="M427 120H142.058V404.942H427V120Z" fill="#1C30EF"/>
<path fill-rule="evenodd" clip-rule="evenodd" d="M426 120H141.333V262.333H283.667C283.667 183.725 347.391 120 426 120Z" fill="#EFC2A5"/>
<path d="M0 262.058H284.942V547C127.573 547 0 419.427 0 262.058Z" fill="#010006"/>
</svg>
